<svg xmlns="http://www.w3.org/2000/svg" width="1600" height="760" viewBox="0 0 1600 760">
<defs>
<style>text{font-family:'Noto Sans CJK SC','Microsoft YaHei','PingFang SC','Arial',sans-serif;}</style>
</defs>
<rect width="1600" height="760" fill="#F8FAFC"/>
<text x="64.0" y="78.0" text-anchor="start" font-size="48" font-weight="850" fill="#183153">FishboneChain</text>
<text x="64.0" y="128.0" text-anchor="start" font-size="31" font-weight="700" fill="#334155">实验规模：12 台 VM 节点 | 1 条主链 + 6 条业务子链 | 24 个子链验证席位 | N=6 吞吐 396 TPS</text>
<rect x="64.0" y="170.0" width="394.0" height="500.0" rx="14.0" fill="#FFFFFF" stroke="#DDE3EA" stroke-width="1.2"/>
<text x="96.0" y="216.0" text-anchor="start" font-size="31" font-weight="850" fill="#183153">子链场景</text>
<rect x="96.0" y="271.0" width="94.0" height="42.0" rx="13.0" fill="#2F80ED" stroke="#2F80ED" stroke-width="1.2"/>
<text x="143.0" y="300.0" text-anchor="middle" font-size="24" font-weight="850" fill="#FFFFFF">C1</text>
<text x="214.0" y="297.0" text-anchor="start" font-size="27" font-weight="800" fill="#183153">快递配送</text>
<text x="385.0" y="297.0" text-anchor="end" font-size="25" font-weight="850" fill="#2F80ED">3V</text>
<rect x="96.0" y="338.0" width="94.0" height="42.0" rx="13.0" fill="#F2994A" stroke="#F2994A" stroke-width="1.2"/>
<text x="143.0" y="367.0" text-anchor="middle" font-size="24" font-weight="850" fill="#FFFFFF">C2</text>
<text x="214.0" y="364.0" text-anchor="start" font-size="27" font-weight="800" fill="#183153">交通感知</text>
<text x="385.0" y="364.0" text-anchor="end" font-size="25" font-weight="850" fill="#F2994A">3V</text>
<rect x="96.0" y="405.0" width="94.0" height="42.0" rx="13.0" fill="#27AE60" stroke="#27AE60" stroke-width="1.2"/>
<text x="143.0" y="434.0" text-anchor="middle" font-size="24" font-weight="850" fill="#FFFFFF">C3</text>
<text x="214.0" y="431.0" text-anchor="start" font-size="27" font-weight="800" fill="#183153">医疗标注</text>
<text x="385.0" y="431.0" text-anchor="end" font-size="25" font-weight="850" fill="#27AE60">3V</text>
<rect x="96.0" y="472.0" width="94.0" height="42.0" rx="13.0" fill="#9B51E0" stroke="#9B51E0" stroke-width="1.2"/>
<text x="143.0" y="501.0" text-anchor="middle" font-size="24" font-weight="850" fill="#FFFFFF">C4</text>
<text x="214.0" y="498.0" text-anchor="start" font-size="27" font-weight="800" fill="#183153">金融核验</text>
<text x="385.0" y="498.0" text-anchor="end" font-size="25" font-weight="850" fill="#9B51E0">7V</text>
<rect x="96.0" y="539.0" width="94.0" height="42.0" rx="13.0" fill="#00A6A6" stroke="#00A6A6" stroke-width="1.2"/>
<text x="143.0" y="568.0" text-anchor="middle" font-size="24" font-weight="850" fill="#FFFFFF">C5</text>
<text x="214.0" y="565.0" text-anchor="start" font-size="27" font-weight="800" fill="#183153">IoT 传感</text>
<text x="385.0" y="565.0" text-anchor="end" font-size="25" font-weight="850" fill="#00A6A6">3V</text>
<rect x="96.0" y="606.0" width="94.0" height="42.0" rx="13.0" fill="#EB5757" stroke="#EB5757" stroke-width="1.2"/>
<text x="143.0" y="635.0" text-anchor="middle" font-size="24" font-weight="850" fill="#FFFFFF">C6</text>
<text x="214.0" y="632.0" text-anchor="start" font-size="27" font-weight="800" fill="#183153">数据市场</text>
<text x="385.0" y="632.0" text-anchor="end" font-size="25" font-weight="850" fill="#EB5757">5V</text>
<rect x="486.0" y="170.0" width="970.0" height="500.0" rx="14.0" fill="#FFFFFF" stroke="#DDE3EA" stroke-width="1.2"/>
<text x="522.0" y="218.0" text-anchor="start" font-size="31" font-weight="850" fill="#183153">验证人分布</text>
<line x1="520.0" y1="250.0" x2="1356.0" y2="250.0" stroke="#183153" stroke-width="14" stroke-linecap="round"/>
<circle cx="520.0" cy="250.0" r="15" fill="#FFFFFF" stroke="#183153" stroke-width="7"/>
<text x="520.0" y="715.0" text-anchor="middle" font-size="27" font-weight="850" fill="#183153">F1</text>
<circle cx="596.0" cy="250.0" r="15" fill="#FFFFFF" stroke="#183153" stroke-width="7"/>
<text x="596.0" y="715.0" text-anchor="middle" font-size="27" font-weight="850" fill="#183153">F2</text>
<circle cx="672.0" cy="250.0" r="15" fill="#FFFFFF" stroke="#183153" stroke-width="7"/>
<text x="672.0" y="715.0" text-anchor="middle" font-size="27" font-weight="850" fill="#183153">F3</text>
<circle cx="748.0" cy="250.0" r="15" fill="#FFFFFF" stroke="#183153" stroke-width="7"/>
<text x="748.0" y="715.0" text-anchor="middle" font-size="27" font-weight="850" fill="#183153">F4</text>
<circle cx="824.0" cy="250.0" r="15" fill="#FFFFFF" stroke="#183153" stroke-width="7"/>
<text x="824.0" y="715.0" text-anchor="middle" font-size="27" font-weight="850" fill="#183153">F5</text>
<circle cx="900.0" cy="250.0" r="15" fill="#FFFFFF" stroke="#183153" stroke-width="7"/>
<text x="900.0" y="715.0" text-anchor="middle" font-size="27" font-weight="850" fill="#183153">F6</text>
<circle cx="976.0" cy="250.0" r="15" fill="#FFFFFF" stroke="#183153" stroke-width="7"/>
<text x="976.0" y="715.0" text-anchor="middle" font-size="27" font-weight="850" fill="#183153">F7</text>
<circle cx="1052.0" cy="250.0" r="15" fill="#FFFFFF" stroke="#183153" stroke-width="7"/>
<text x="1052.0" y="715.0" text-anchor="middle" font-size="27" font-weight="850" fill="#183153">F8</text>
<circle cx="1128.0" cy="250.0" r="15" fill="#FFFFFF" stroke="#183153" stroke-width="7"/>
<text x="1128.0" y="715.0" text-anchor="middle" font-size="27" font-weight="850" fill="#183153">F9</text>
<circle cx="1204.0" cy="250.0" r="15" fill="#FFFFFF" stroke="#183153" stroke-width="7"/>
<text x="1204.0" y="715.0" text-anchor="middle" font-size="27" font-weight="850" fill="#183153">F10</text>
<circle cx="1280.0" cy="250.0" r="15" fill="#FFFFFF" stroke="#183153" stroke-width="7"/>
<text x="1280.0" y="715.0" text-anchor="middle" font-size="27" font-weight="850" fill="#183153">F11</text>
<circle cx="1356.0" cy="250.0" r="15" fill="#FFFFFF" stroke="#183153" stroke-width="7"/>
<text x="1356.0" y="715.0" text-anchor="middle" font-size="27" font-weight="850" fill="#183153">F12</text>
<line x1="520.0" y1="300.0" x2="672.0" y2="300.0" stroke="#2F80ED" stroke-width="10" stroke-linecap="round" opacity="0.88"/>
<circle cx="520.0" cy="300.0" r="18" fill="#FFFFFF" stroke="#2F80ED" stroke-width="8"/>
<circle cx="596.0" cy="300.0" r="18" fill="#FFFFFF" stroke="#2F80ED" stroke-width="8"/>
<circle cx="672.0" cy="300.0" r="18" fill="#FFFFFF" stroke="#2F80ED" stroke-width="8"/>
<circle cx="748.0" cy="300.0" r="6" fill="#CBD5E1"/>
<circle cx="824.0" cy="300.0" r="6" fill="#CBD5E1"/>
<circle cx="900.0" cy="300.0" r="6" fill="#CBD5E1"/>
<circle cx="976.0" cy="300.0" r="6" fill="#CBD5E1"/>
<circle cx="1052.0" cy="300.0" r="6" fill="#CBD5E1"/>
<circle cx="1128.0" cy="300.0" r="6" fill="#CBD5E1"/>
<circle cx="1204.0" cy="300.0" r="6" fill="#CBD5E1"/>
<circle cx="1280.0" cy="300.0" r="6" fill="#CBD5E1"/>
<circle cx="1356.0" cy="300.0" r="6" fill="#CBD5E1"/>
<line x1="748.0" y1="367.0" x2="900.0" y2="367.0" stroke="#F2994A" stroke-width="10" stroke-linecap="round" opacity="0.88"/>
<circle cx="520.0" cy="367.0" r="6" fill="#CBD5E1"/>
<circle cx="596.0" cy="367.0" r="6" fill="#CBD5E1"/>
<circle cx="672.0" cy="367.0" r="6" fill="#CBD5E1"/>
<circle cx="748.0" cy="367.0" r="18" fill="#FFFFFF" stroke="#F2994A" stroke-width="8"/>
<circle cx="824.0" cy="367.0" r="18" fill="#FFFFFF" stroke="#F2994A" stroke-width="8"/>
<circle cx="900.0" cy="367.0" r="18" fill="#FFFFFF" stroke="#F2994A" stroke-width="8"/>
<circle cx="976.0" cy="367.0" r="6" fill="#CBD5E1"/>
<circle cx="1052.0" cy="367.0" r="6" fill="#CBD5E1"/>
<circle cx="1128.0" cy="367.0" r="6" fill="#CBD5E1"/>
<circle cx="1204.0" cy="367.0" r="6" fill="#CBD5E1"/>
<circle cx="1280.0" cy="367.0" r="6" fill="#CBD5E1"/>
<circle cx="1356.0" cy="367.0" r="6" fill="#CBD5E1"/>
<line x1="976.0" y1="434.0" x2="1128.0" y2="434.0" stroke="#27AE60" stroke-width="10" stroke-linecap="round" opacity="0.88"/>
<circle cx="520.0" cy="434.0" r="6" fill="#CBD5E1"/>
<circle cx="596.0" cy="434.0" r="6" fill="#CBD5E1"/>
<circle cx="672.0" cy="434.0" r="6" fill="#CBD5E1"/>
<circle cx="748.0" cy="434.0" r="6" fill="#CBD5E1"/>
<circle cx="824.0" cy="434.0" r="6" fill="#CBD5E1"/>
<circle cx="900.0" cy="434.0" r="6" fill="#CBD5E1"/>
<circle cx="976.0" cy="434.0" r="18" fill="#FFFFFF" stroke="#27AE60" stroke-width="8"/>
<circle cx="1052.0" cy="434.0" r="18" fill="#FFFFFF" stroke="#27AE60" stroke-width="8"/>
<circle cx="1128.0" cy="434.0" r="18" fill="#FFFFFF" stroke="#27AE60" stroke-width="8"/>
<circle cx="1204.0" cy="434.0" r="6" fill="#CBD5E1"/>
<circle cx="1280.0" cy="434.0" r="6" fill="#CBD5E1"/>
<circle cx="1356.0" cy="434.0" r="6" fill="#CBD5E1"/>
<line x1="520.0" y1="501.0" x2="976.0" y2="501.0" stroke="#9B51E0" stroke-width="10" stroke-linecap="round" opacity="0.88"/>
<circle cx="520.0" cy="501.0" r="18" fill="#FFFFFF" stroke="#9B51E0" stroke-width="8"/>
<circle cx="596.0" cy="501.0" r="18" fill="#FFFFFF" stroke="#9B51E0" stroke-width="8"/>
<circle cx="672.0" cy="501.0" r="18" fill="#FFFFFF" stroke="#9B51E0" stroke-width="8"/>
<circle cx="748.0" cy="501.0" r="18" fill="#FFFFFF" stroke="#9B51E0" stroke-width="8"/>
<circle cx="824.0" cy="501.0" r="18" fill="#FFFFFF" stroke="#9B51E0" stroke-width="8"/>
<circle cx="900.0" cy="501.0" r="18" fill="#FFFFFF" stroke="#9B51E0" stroke-width="8"/>
<circle cx="976.0" cy="501.0" r="18" fill="#FFFFFF" stroke="#9B51E0" stroke-width="8"/>
<circle cx="1052.0" cy="501.0" r="6" fill="#CBD5E1"/>
<circle cx="1128.0" cy="501.0" r="6" fill="#CBD5E1"/>
<circle cx="1204.0" cy="501.0" r="6" fill="#CBD5E1"/>
<circle cx="1280.0" cy="501.0" r="6" fill="#CBD5E1"/>
<circle cx="1356.0" cy="501.0" r="6" fill="#CBD5E1"/>
<line x1="1204.0" y1="568.0" x2="1356.0" y2="568.0" stroke="#00A6A6" stroke-width="10" stroke-linecap="round" opacity="0.88"/>
<circle cx="520.0" cy="568.0" r="6" fill="#CBD5E1"/>
<circle cx="596.0" cy="568.0" r="6" fill="#CBD5E1"/>
<circle cx="672.0" cy="568.0" r="6" fill="#CBD5E1"/>
<circle cx="748.0" cy="568.0" r="6" fill="#CBD5E1"/>
<circle cx="824.0" cy="568.0" r="6" fill="#CBD5E1"/>
<circle cx="900.0" cy="568.0" r="6" fill="#CBD5E1"/>
<circle cx="976.0" cy="568.0" r="6" fill="#CBD5E1"/>
<circle cx="1052.0" cy="568.0" r="6" fill="#CBD5E1"/>
<circle cx="1128.0" cy="568.0" r="6" fill="#CBD5E1"/>
<circle cx="1204.0" cy="568.0" r="18" fill="#FFFFFF" stroke="#00A6A6" stroke-width="8"/>
<circle cx="1280.0" cy="568.0" r="18" fill="#FFFFFF" stroke="#00A6A6" stroke-width="8"/>
<circle cx="1356.0" cy="568.0" r="18" fill="#FFFFFF" stroke="#00A6A6" stroke-width="8"/>
<line x1="520.0" y1="635.0" x2="824.0" y2="635.0" stroke="#EB5757" stroke-width="10" stroke-linecap="round" opacity="0.88"/>
<circle cx="520.0" cy="635.0" r="18" fill="#FFFFFF" stroke="#EB5757" stroke-width="8"/>
<circle cx="596.0" cy="635.0" r="18" fill="#FFFFFF" stroke="#EB5757" stroke-width="8"/>
<circle cx="672.0" cy="635.0" r="18" fill="#FFFFFF" stroke="#EB5757" stroke-width="8"/>
<circle cx="748.0" cy="635.0" r="18" fill="#FFFFFF" stroke="#EB5757" stroke-width="8"/>
<circle cx="824.0" cy="635.0" r="18" fill="#FFFFFF" stroke="#EB5757" stroke-width="8"/>
<circle cx="900.0" cy="635.0" r="6" fill="#CBD5E1"/>
<circle cx="976.0" cy="635.0" r="6" fill="#CBD5E1"/>
<circle cx="1052.0" cy="635.0" r="6" fill="#CBD5E1"/>
<circle cx="1128.0" cy="635.0" r="6" fill="#CBD5E1"/>
<circle cx="1204.0" cy="635.0" r="6" fill="#CBD5E1"/>
<circle cx="1280.0" cy="635.0" r="6" fill="#CBD5E1"/>
<circle cx="1356.0" cy="635.0" r="6" fill="#CBD5E1"/>
</svg>